<svg width="100" height="100" viewBox="0 0 100 100" xmlns="http://www.w3.org/2000/svg">
  <!-- Background circle -->
  <circle cx="50" cy="50" r="48" fill="#FF6B6B" stroke="#333" stroke-width="2"/>
  
  <!-- Pokeball design -->
  <circle cx="50" cy="50" r="46" fill="#FF4757" stroke="none"/>
  <rect x="4" y="45" width="92" height="10" fill="#333"/>
  <rect x="4" y="48" width="92" height="4" fill="#FFD700"/>
  
  <!-- Bottom half -->
  <path d="M 4 50 A 46 46 0 0 0 96 50 Z" fill="#FFF"/>
  
  <!-- Center button -->
  <circle cx="50" cy="50" r="8" fill="#333" stroke="#FFD700" stroke-width="2"/>
  <circle cx="50" cy="50" r="4" fill="#FFF"/>
  
  <!-- Pokemon silhouette -->
  <g transform="translate(50,50) scale(0.6)">
    <!-- Simple Pikachu-like silhouette -->
    <ellipse cx="0" cy="5" rx="12" ry="15" fill="#333" opacity="0.7"/>
    <!-- Ears -->
    <ellipse cx="-8" cy="-8" rx="3" ry="8" fill="#333" opacity="0.7"/>
    <ellipse cx="8" cy="-8" rx="3" ry="8" fill="#333" opacity="0.7"/>
    <!-- Tail -->
    <path d="M 12 8 Q 18 4 16 -2 Q 20 -6 22 0 Q 20 8 15 12" fill="#333" opacity="0.7"/>
  </g>
  
  <!-- Game controller overlay -->
  <g transform="translate(20,75)">
    <rect x="0" y="0" width="60" height="20" rx="10" fill="#4A90E2" opacity="0.8"/>
    <circle cx="15" cy="10" r="3" fill="#FFF"/>
    <circle cx="45" cy="10" r="3" fill="#FFF"/>
    <rect x="35" y="7" width="6" height="2" fill="#FFF"/>
    <rect x="37" y="5" width="2" height="6" fill="#FFF"/>
  </g>
</svg>