<svg viewBox="0 0 100 100" xmlns="http://www.w3.org/2000/svg">
  <!-- Background circle -->
  <circle cx="50" cy="50" r="48" fill="#1a1a2e" stroke="#6c5ce7" stroke-width="2"/>
  
  <!-- Moon -->
  <circle cx="50" cy="25" r="12" fill="#f1c40f" opacity="0.8"/>
  <circle cx="55" cy="22" r="9" fill="#1a1a2e" opacity="0.3"/>
  
  <!-- Wolf silhouette -->
  <path d="M25 65 L30 55 L35 50 L40 48 L45 47 L55 47 L60 48 L65 50 L70 55 L75 65 L75 75 L70 80 L60 82 L40 82 L30 80 L25 75 Z" 
        fill="#2c3e50"/>
  
  <!-- Wolf head -->
  <ellipse cx="50" cy="45" rx="15" ry="12" fill="#34495e"/>
  
  <!-- Ears -->
  <path d="M38 35 L42 45 L46 40 Z" fill="#34495e"/>
  <path d="M54 40 L58 45 L62 35 Z" fill="#34495e"/>
  
  <!-- Eyes (glowing red) -->
  <circle cx="45" cy="42" r="2" fill="#e74c3c"/>
  <circle cx="55" cy="42" r="2" fill="#e74c3c"/>
  <circle cx="45" cy="42" r="1" fill="#ffffff" opacity="0.7"/>
  <circle cx="55" cy="42" r="1" fill="#ffffff" opacity="0.7"/>
  
  <!-- Snout -->
  <ellipse cx="50" cy="48" rx="4" ry="3" fill="#2c3e50"/>
  
  <!-- Nose -->
  <ellipse cx="50" cy="46" rx="1.5" ry="1" fill="#000000"/>
  
  <!-- Mouth -->
  <path d="M48 50 Q50 52 52 50" stroke="#000000" stroke-width="1" fill="none"/>
  
  <!-- Fangs -->
  <path d="M47 50 L47 53 L48.5 50" fill="#ffffff"/>
  <path d="M53 50 L53 53 L51.5 50" fill="#ffffff"/>
  
  <!-- Claws -->
  <g stroke="#ffffff" stroke-width="1.5" fill="none">
    <line x1="32" y1="75" x2="30" y2="78"/>
    <line x1="35" y1="76" x2="33" y2="79"/>
    <line x1="38" y1="77" x2="36" y2="80"/>
    
    <line x1="68" y1="75" x2="70" y2="78"/>
    <line x1="65" y1="76" x2="67" y2="79"/>
    <line x1="62" y1="77" x2="64" y2="80"/>
  </g>
  
  <!-- Game title -->
  <text x="50" y="92" text-anchor="middle" font-family="Arial, sans-serif" font-size="8" font-weight="bold" fill="#ffffff">
    WEREWOLF
  </text>
</svg>